<?xml version="1.0" encoding="UTF-8" standalone="no"?>
<svg
   version="1.1"
   viewBox="0 0 253.17061 216.15616"
   fill="none"
   stroke="none"
   stroke-linecap="square"
   stroke-miterlimit="10"
   id="svg79"
   sodipodi:docname="Best practices SQL.svg"
   width="253.17061"
   height="216.15616"
   inkscape:version="1.1 (ce6663b3b7, 2021-05-25)"
   xmlns:inkscape="http://www.inkscape.org/namespaces/inkscape"
   xmlns:sodipodi="http://sodipodi.sourceforge.net/DTD/sodipodi-0.dtd"
   xmlns="http://www.w3.org/2000/svg"
   xmlns:svg="http://www.w3.org/2000/svg">
  <defs
     id="defs83" />
  <sodipodi:namedview
     id="namedview81"
     pagecolor="#ffffff"
     bordercolor="#666666"
     borderopacity="1.0"
     inkscape:pageshadow="2"
     inkscape:pageopacity="0.0"
     inkscape:pagecheckerboard="0"
     showgrid="false"
     fit-margin-top="0"
     fit-margin-left="0"
     fit-margin-right="0"
     fit-margin-bottom="0"
     inkscape:zoom="1.3760417"
     inkscape:cx="-202.75549"
     inkscape:cy="116.63891"
     inkscape:window-width="2560"
     inkscape:window-height="1352"
     inkscape:window-x="0"
     inkscape:window-y="24"
     inkscape:window-maximized="1"
     inkscape:current-layer="g77" />
  <clipPath
     id="p.0">
    <path
       d="M 0,0 H 960 V 540 H 0 Z"
       clip-rule="nonzero"
       id="path2" />
  </clipPath>
  <g
     clip-path="url(#p.0)"
     id="g77"
     transform="translate(-442.39157,-153.40846)">
    <path
       fill="#ffffff"
       d="m 504.45631,368.31297 h -325.0037 v 240.64048 h 325.0037 z"
       fill-rule="evenodd"
       id="path5"
       style="stroke-width:0.388415" />
    <g
       id="g120"
       transform="translate(367.29446,46.941269)">
      <path
         fill="#000000"
         fill-opacity="0"
         d="m 75.097115,123.69029 h 61.070865 v 33.92125 H 75.097115 Z"
         fill-rule="evenodd"
         id="path7" />
      <path
         fill="#000000"
         d="m 90.003365,142.11655 q 0,-0.71875 -0.5,-1.125 -0.5,-0.42188 -1.828125,-0.78125 -1.3125,-0.375 -1.921875,-0.8125 -0.875,-0.625 -0.875,-1.64063 0,-0.96875 0.796875,-1.57812 0.8125,-0.625 2.078125,-0.625 0.84375,0 1.515625,0.32812 0.671875,0.32813 1.03125,0.92188 0.375,0.57812 0.375,1.3125 h -0.71875 q 0,-0.875 -0.609375,-1.40625 -0.59375,-0.53125 -1.59375,-0.53125 -0.984375,0 -1.5625,0.4375 -0.578125,0.4375 -0.578125,1.14062 0,0.64063 0.515625,1.0625 0.53125,0.40625 1.671875,0.71875 1.15625,0.3125 1.734375,0.65625 0.59375,0.32813 0.890625,0.79688 0.3125,0.46875 0.3125,1.10937 0,1 -0.8125,1.625 -0.8125,0.60938 -2.125,0.60938 -0.90625,0 -1.65625,-0.32813 -0.75,-0.32812 -1.140625,-0.90625 -0.390625,-0.57812 -0.390625,-1.32812 h 0.71875 q 0,0.90625 0.671875,1.42187 0.671875,0.51563 1.796875,0.51563 1,0 1.59375,-0.4375 0.609375,-0.4375 0.609375,-1.15625 z m 4.576172,2.21875 q -0.8125,0 -1.46875,-0.40625 -0.65625,-0.40625 -1.015625,-1.10938 -0.359375,-0.71875 -0.359375,-1.59375 v -0.25 q 0,-0.92187 0.34375,-1.65625 0.359375,-0.73437 0.984375,-1.14062 0.640625,-0.42188 1.375,-0.42188 1.15625,0 1.828125,0.79688 0.6875,0.78125 0.6875,2.14062 v 0.39063 h -4.53125 v 0.14062 q 0,1.07813 0.625,1.79688 0.625,0.71875 1.5625,0.71875 0.5625,0 0.984375,-0.20313 0.4375,-0.21875 0.78125,-0.67187 l 0.4375,0.34375 q -0.765625,1.125 -2.234375,1.125 z m -0.140625,-5.98438 q -0.78125,0 -1.328125,0.57813 -0.546875,0.57812 -0.65625,1.5625 h 3.796875 v -0.0781 q -0.03125,-0.92187 -0.53125,-1.48437 -0.484375,-0.57813 -1.28125,-0.57813 z m 6.808598,0.10938 q -0.21875,-0.0312 -0.46875,-0.0312 -0.65625,0 -1.109379,0.375 -0.453125,0.35937 -0.65625,1.04687 v 4.35938 h -0.6875 v -6.34375 h 0.671875 l 0.01563,1.01562 q 0.5625,-1.125 1.796884,-1.125 0.28125,0 0.45312,0.0781 z m 3.18945,4.78125 1.92187,-5.375 h 0.71875 l -2.35937,6.34375 h -0.5625 l -2.39063,-6.34375 h 0.71875 z m 6.17969,1.09375 q -0.8125,0 -1.46875,-0.40625 -0.65625,-0.40625 -1.01563,-1.10938 -0.35937,-0.71875 -0.35937,-1.59375 v -0.25 q 0,-0.92187 0.34375,-1.65625 0.35937,-0.73437 0.98437,-1.14062 0.64063,-0.42188 1.375,-0.42188 1.15625,0 1.82813,0.79688 0.6875,0.78125 0.6875,2.14062 v 0.39063 h -4.53125 v 0.14062 q 0,1.07813 0.625,1.79688 0.625,0.71875 1.5625,0.71875 0.5625,0 0.98437,-0.20313 0.4375,-0.21875 0.78125,-0.67187 l 0.4375,0.34375 q -0.76562,1.125 -2.23437,1.125 z m -0.14063,-5.98438 q -0.78125,0 -1.32812,0.57813 -0.54688,0.57812 -0.65625,1.5625 h 3.79687 v -0.0781 q -0.0312,-0.92187 -0.53125,-1.48437 -0.48437,-0.57813 -1.28125,-0.57813 z m 6.8086,0.10938 q -0.21875,-0.0312 -0.46875,-0.0312 -0.65625,0 -1.10938,0.375 -0.45312,0.35937 -0.65625,1.04687 v 4.35938 h -0.6875 v -6.34375 h 0.67188 l 0.0156,1.01562 q 0.5625,-1.125 1.79688,-1.125 0.28125,0 0.45312,0.0781 z"
         fill-rule="nonzero"
         id="path9" />
      <path
         fill="#eeeeee"
         d="m 260.0735,137.20473 v 0 c 0,3.82251 12.39502,6.92126 27.68506,6.92126 15.29001,0 27.68503,-3.09875 27.68503,-6.92126 v 60.86614 c 0,3.8225 -12.39502,6.92126 -27.68503,6.92126 -15.29004,0 -27.68506,-3.09876 -27.68506,-6.92126 z"
         fill-rule="evenodd"
         id="path11" />
      <path
         fill="#f4f4f4"
         d="m 260.0735,137.20473 v 0 c 0,-3.82251 12.39502,-6.92126 27.68506,-6.92126 15.29001,0 27.68503,3.09875 27.68503,6.92126 v 0 c 0,3.82251 -12.39502,6.92126 -27.68503,6.92126 -15.29004,0 -27.68506,-3.09875 -27.68506,-6.92126 z"
         fill-rule="evenodd"
         id="path13" />
      <path
         fill="#000000"
         fill-opacity="0"
         d="m 315.44357,137.20473 v 0 c 0,3.82251 -12.39502,6.92126 -27.68503,6.92126 -15.29004,0 -27.68506,-3.09875 -27.68506,-6.92126 v 0 c 0,-3.82251 12.39502,-6.92126 27.68506,-6.92126 15.29001,0 27.68503,3.09875 27.68503,6.92126 v 60.86614 c 0,3.8225 -12.39502,6.92126 -27.68503,6.92126 -15.29004,0 -27.68506,-3.09876 -27.68506,-6.92126 v -60.86614"
         fill-rule="evenodd"
         id="path15" />
      <path
         stroke="#595959"
         stroke-width="1"
         stroke-linejoin="round"
         stroke-linecap="butt"
         d="m 315.44357,137.20473 v 0 c 0,3.82251 -12.39502,6.92126 -27.68503,6.92126 -15.29004,0 -27.68506,-3.09875 -27.68506,-6.92126 v 0 c 0,-3.82251 12.39502,-6.92126 27.68506,-6.92126 15.29001,0 27.68503,3.09875 27.68503,6.92126 v 60.86614 c 0,3.8225 -12.39502,6.92126 -27.68503,6.92126 -15.29004,0 -27.68506,-3.09876 -27.68506,-6.92126 v -60.86614"
         fill-rule="evenodd"
         id="path17" />
      <path
         fill="#eeeeee"
         d="m 77.732285,147.43307 h 49.196845 v 40.40944 H 77.732285 Z"
         fill-rule="evenodd"
         id="path19" />
      <path
         stroke="#595959"
         stroke-width="1"
         stroke-linejoin="round"
         stroke-linecap="butt"
         d="m 77.732285,147.43307 h 49.196845 v 40.40944 H 77.732285 Z"
         fill-rule="evenodd"
         id="path21" />
      <path
         fill="#000000"
         fill-opacity="0"
         d="m 266.66403,106.46719 h 61.07086 v 33.92126 h -61.07086 z"
         fill-rule="evenodd"
         id="path23" />
      <path
         fill="#000000"
         d="m 276.74216,126.98719 v -8.53125 h 2.39062 q 1.04688,0 1.875,0.48437 0.82813,0.46875 1.29688,1.35938 0.46875,0.89062 0.46875,2.03125 v 0.78125 q 0,1.14062 -0.46875,2.03125 -0.45313,0.875 -1.29688,1.35937 -0.84375,0.48438 -1.9375,0.48438 z m 0.71875,-7.92188 v 7.3125 h 1.625 q 1.34375,0 2.15625,-0.89062 0.8125,-0.89063 0.8125,-2.42188 v -0.75 q 0,-1.46875 -0.8125,-2.34375 -0.79688,-0.89062 -2.10938,-0.90625 z m 7.13867,7.92188 v -8.53125 h 2.51563 q 1.375,0 2.07812,0.5625 0.71875,0.5625 0.71875,1.67187 0,0.65625 -0.35937,1.15625 -0.35938,0.48438 -0.98438,0.6875 0.73438,0.17188 1.1875,0.75 0.45313,0.5625 0.45313,1.29688 0,1.14062 -0.73438,1.78125 -0.71875,0.625 -2.01562,0.625 z m 0.71875,-4.10938 v 3.5 h 2.17188 q 0.92187,0 1.45312,-0.46875 0.54688,-0.46875 0.54688,-1.3125 0,-0.79687 -0.51563,-1.25 -0.51562,-0.46875 -1.4375,-0.46875 z m 0,-0.59375 h 1.96875 q 0.90625,-0.0156 1.39063,-0.42187 0.5,-0.40625 0.5,-1.1875 0,-0.82813 -0.51563,-1.21875 -0.5,-0.39063 -1.54687,-0.39063 h -1.79688 z"
         fill-rule="nonzero"
         id="path25" />
      <path
         fill="#000000"
         fill-opacity="0"
         d="M 126.92913,167.6378 H 260.06298"
         fill-rule="evenodd"
         id="path27" />
      <path
         stroke="#595959"
         stroke-width="1"
         stroke-linejoin="round"
         stroke-linecap="butt"
         d="M 126.92913,167.6378 H 254.06299"
         fill-rule="evenodd"
         id="path29" />
      <path
         fill="#595959"
         stroke="#595959"
         stroke-width="1"
         stroke-linecap="butt"
         d="m 254.06299,169.28952 4.53812,-1.65172 -4.53812,-1.65173 z"
         fill-rule="evenodd"
         id="path31" />
      <path
         fill="#000000"
         fill-opacity="0"
         d="m 167.5853,140.38846 h 61.07088 v 33.92125 H 167.5853 Z"
         fill-rule="evenodd"
         id="path33" />
      <path
         fill="#000000"
         d="m 183.94467,157.11157 q 0,1.21875 -0.4375,2.125 -0.42188,0.89062 -1.21875,1.35937 l 1.54687,1.35938 -0.5,0.4375 -1.73437,-1.5 q -0.48438,0.14062 -0.98438,0.14062 -0.96875,0 -1.73437,-0.48437 -0.75,-0.48438 -1.17188,-1.35938 -0.40625,-0.89062 -0.42187,-2.04687 v -0.95313 q 0,-1.17187 0.40625,-2.0625 0.42187,-0.90625 1.17187,-1.39062 0.76563,-0.48438 1.75,-0.48438 0.98438,0 1.73438,0.48438 0.76562,0.48437 1.17187,1.39062 0.42188,0.89063 0.42188,2.0625 z m -0.71875,-0.9375 q 0,-1.53125 -0.70313,-2.40625 -0.6875,-0.875 -1.90625,-0.875 -1.1875,0 -1.89062,0.875 -0.70313,0.875 -0.70313,2.45312 v 0.89063 q 0,1.51562 0.6875,2.40625 0.70313,0.875 1.90625,0.875 1.21875,0 1.90625,-0.85938 0.70313,-0.875 0.70313,-2.45312 z m 6.48047,3.9375 q -0.64063,0.92187 -2.03125,0.92187 -1.01563,0 -1.54688,-0.59375 -0.51562,-0.59375 -0.53125,-1.75 v -4.125 h 0.70313 v 4.04688 q 0,1.79687 1.45312,1.79687 1.53125,0 1.9375,-1.25 v -4.59375 h 0.70313 v 6.34375 h -0.6875 z m 4.9668,0.92187 q -0.8125,0 -1.46875,-0.40625 -0.65625,-0.40625 -1.01563,-1.10937 -0.35937,-0.71875 -0.35937,-1.59375 v -0.25 q 0,-0.92188 0.34375,-1.65625 0.35937,-0.73438 0.98437,-1.14063 0.64063,-0.42187 1.375,-0.42187 1.15625,0 1.82813,0.79687 0.6875,0.78125 0.6875,2.14063 v 0.39062 h -4.53125 v 0.14063 q 0,1.07812 0.625,1.79687 0.625,0.71875 1.5625,0.71875 0.5625,0 0.98437,-0.20312 0.4375,-0.21875 0.78125,-0.67188 l 0.4375,0.34375 q -0.76562,1.125 -2.23437,1.125 z m -0.14063,-5.98437 q -0.78125,0 -1.32812,0.57812 -0.54688,0.57813 -0.65625,1.5625 h 3.79687 v -0.0781 q -0.0312,-0.92188 -0.53125,-1.48438 -0.48437,-0.57812 -1.28125,-0.57812 z m 6.80859,0.10937 q -0.21875,-0.0312 -0.46875,-0.0312 -0.65625,0 -1.10937,0.375 -0.45313,0.35938 -0.65625,1.04688 v 4.35937 h -0.6875 v -6.34375 h 0.67187 l 0.0156,1.01563 q 0.5625,-1.125 1.79687,-1.125 0.28125,0 0.45313,0.0781 z m 3.22071,4.73438 1.85937,-5.32813 h 0.75 l -2.70312,7.42188 -0.14063,0.32812 q -0.53125,1.15625 -1.60937,1.15625 -0.25,0 -0.54688,-0.0781 v -0.57813 l 0.35938,0.0312 q 0.51562,0 0.82812,-0.26562 0.32813,-0.25 0.54688,-0.875 l 0.3125,-0.84375 -2.39063,-6.29688 h 0.76563 z"
         fill-rule="nonzero"
         id="path35" />
      <path
         fill="#000000"
         fill-opacity="0"
         d="m 75.62992,240.82152 h 61.07087 v 33.92125 H 75.62992 Z"
         fill-rule="evenodd"
         id="path37" />
      <path
         fill="#000000"
         d="m 90.53617,259.24777 q 0,-0.71875 -0.5,-1.125 -0.5,-0.42188 -1.828125,-0.78125 -1.3125,-0.375 -1.921875,-0.8125 -0.875,-0.625 -0.875,-1.64063 0,-0.96875 0.796875,-1.57812 0.8125,-0.625 2.078125,-0.625 0.84375,0 1.515625,0.32812 0.671875,0.32813 1.03125,0.92188 0.375,0.57812 0.375,1.3125 h -0.71875 q 0,-0.875 -0.609375,-1.40625 -0.59375,-0.53125 -1.59375,-0.53125 -0.984375,0 -1.5625,0.4375 -0.578125,0.4375 -0.578125,1.14062 0,0.64063 0.515625,1.0625 0.53125,0.40625 1.671875,0.71875 1.15625,0.3125 1.734375,0.65625 0.59375,0.32813 0.890625,0.79688 0.3125,0.46875 0.3125,1.10937 0,1 -0.8125,1.625 -0.8125,0.60938 -2.125,0.60938 -0.90625,0 -1.65625,-0.32813 -0.75,-0.32812 -1.140625,-0.90625 -0.390625,-0.57812 -0.390625,-1.32812 h 0.71875 q 0,0.90625 0.671875,1.42187 0.671875,0.51563 1.796875,0.51563 1,0 1.59375,-0.4375 0.609375,-0.4375 0.609375,-1.15625 z m 4.576172,2.21875 q -0.8125,0 -1.46875,-0.40625 -0.65625,-0.40625 -1.015625,-1.10938 -0.359375,-0.71875 -0.359375,-1.59375 v -0.25 q 0,-0.92187 0.34375,-1.65625 0.359375,-0.73437 0.984375,-1.14062 0.640625,-0.42188 1.375,-0.42188 1.15625,0 1.828125,0.79688 0.6875,0.78125 0.6875,2.14062 v 0.39063 h -4.53125 v 0.14062 q 0,1.07813 0.625,1.79688 0.625,0.71875 1.5625,0.71875 0.5625,0 0.984375,-0.20313 0.4375,-0.21875 0.78125,-0.67187 l 0.4375,0.34375 q -0.765625,1.125 -2.234375,1.125 z m -0.140625,-5.98438 q -0.78125,0 -1.328125,0.57813 -0.546875,0.57812 -0.65625,1.5625 h 3.796875 v -0.0781 q -0.03125,-0.92187 -0.53125,-1.48437 -0.484375,-0.57813 -1.28125,-0.57813 z m 6.808593,0.10938 q -0.21875,-0.0312 -0.46875,-0.0312 -0.65625,0 -1.10937,0.375 -0.453129,0.35937 -0.656254,1.04687 v 4.35938 h -0.6875 v -6.34375 h 0.671875 l 0.01563,1.01562 q 0.562509,-1.125 1.796879,-1.125 0.28125,0 0.45313,0.0781 z m 3.18945,4.78125 1.92188,-5.375 h 0.71875 l -2.35938,6.34375 h -0.5625 l -2.39062,-6.34375 h 0.71875 z m 6.17969,1.09375 q -0.8125,0 -1.46875,-0.40625 -0.65625,-0.40625 -1.01562,-1.10938 -0.35938,-0.71875 -0.35938,-1.59375 v -0.25 q 0,-0.92187 0.34375,-1.65625 0.35938,-0.73437 0.98438,-1.14062 0.64062,-0.42188 1.375,-0.42188 1.15625,0 1.82812,0.79688 0.6875,0.78125 0.6875,2.14062 v 0.39063 h -4.53125 v 0.14062 q 0,1.07813 0.625,1.79688 0.625,0.71875 1.5625,0.71875 0.5625,0 0.98438,-0.20313 0.4375,-0.21875 0.78125,-0.67187 l 0.4375,0.34375 q -0.76563,1.125 -2.23438,1.125 z m -0.14062,-5.98438 q -0.78125,0 -1.32813,0.57813 -0.54687,0.57812 -0.65625,1.5625 h 3.79688 v -0.0781 q -0.0312,-0.92187 -0.53125,-1.48437 -0.48438,-0.57813 -1.28125,-0.57813 z m 6.80859,0.10938 q -0.21875,-0.0312 -0.46875,-0.0312 -0.65625,0 -1.10937,0.375 -0.45313,0.35937 -0.65625,1.04687 v 4.35938 h -0.6875 v -6.34375 h 0.67187 l 0.0156,1.01562 q 0.5625,-1.125 1.79687,-1.125 0.28125,0 0.45313,0.0781 z"
         fill-rule="nonzero"
         id="path39" />
      <path
         fill="#eeeeee"
         d="m 260.6063,254.33595 v 0 c 0,3.82252 12.39502,6.92128 27.68506,6.92128 15.29001,0 27.68503,-3.09876 27.68503,-6.92128 v 60.86613 c 0,3.82251 -12.39502,6.92127 -27.68503,6.92127 -15.29004,0 -27.68506,-3.09876 -27.68506,-6.92127 z"
         fill-rule="evenodd"
         id="path41" />
      <path
         fill="#f4f4f4"
         d="m 260.6063,254.33595 v 0 c 0,-3.82249 12.39502,-6.92125 27.68506,-6.92125 15.29001,0 27.68503,3.09876 27.68503,6.92125 v 0 c 0,3.82252 -12.39502,6.92128 -27.68503,6.92128 -15.29004,0 -27.68506,-3.09876 -27.68506,-6.92128 z"
         fill-rule="evenodd"
         id="path43" />
      <path
         fill="#000000"
         fill-opacity="0"
         d="m 315.97638,254.33595 v 0 c 0,3.82252 -12.39502,6.92128 -27.68503,6.92128 -15.29004,0 -27.68506,-3.09876 -27.68506,-6.92128 v 0 c 0,-3.82249 12.39502,-6.92125 27.68506,-6.92125 15.29001,0 27.68503,3.09876 27.68503,6.92125 v 60.86613 c 0,3.82251 -12.39502,6.92127 -27.68503,6.92127 -15.29004,0 -27.68506,-3.09876 -27.68506,-6.92127 v -60.86613"
         fill-rule="evenodd"
         id="path45" />
      <path
         stroke="#595959"
         stroke-width="1"
         stroke-linejoin="round"
         stroke-linecap="butt"
         d="m 315.97638,254.33595 v 0 c 0,3.82252 -12.39502,6.92128 -27.68503,6.92128 -15.29004,0 -27.68506,-3.09876 -27.68506,-6.92128 v 0 c 0,-3.82249 12.39502,-6.92125 27.68506,-6.92125 15.29001,0 27.68503,3.09876 27.68503,6.92125 v 60.86613 c 0,3.82251 -12.39502,6.92127 -27.68503,6.92127 -15.29004,0 -27.68506,-3.09876 -27.68506,-6.92127 v -60.86613"
         fill-rule="evenodd"
         id="path47" />
      <path
         fill="#eeeeee"
         d="m 78.26509,264.5643 h 49.19685 v 40.40945 H 78.26509 Z"
         fill-rule="evenodd"
         id="path49" />
      <path
         stroke="#595959"
         stroke-width="1"
         stroke-linejoin="round"
         stroke-linecap="butt"
         d="m 78.26509,264.5643 h 49.19685 v 40.40945 H 78.26509 Z"
         fill-rule="evenodd"
         id="path51" />
      <path
         fill="#000000"
         fill-opacity="0"
         d="m 267.19684,223.59842 h 61.07089 v 33.92126 h -61.07089 z"
         fill-rule="evenodd"
         id="path53" />
      <path
         fill="#000000"
         d="m 277.27496,244.11842 v -8.53125 h 2.39063 q 1.04687,0 1.875,0.48437 0.82812,0.46875 1.29687,1.35938 0.46875,0.89062 0.46875,2.03125 v 0.78125 q 0,1.14062 -0.46875,2.03125 -0.45312,0.875 -1.29687,1.35937 -0.84375,0.48438 -1.9375,0.48438 z m 0.71875,-7.92188 v 7.3125 h 1.625 q 1.34375,0 2.15625,-0.89062 0.8125,-0.89063 0.8125,-2.42188 v -0.75 q 0,-1.46875 -0.8125,-2.34375 -0.79687,-0.89062 -2.10937,-0.90625 z m 7.13867,7.92188 v -8.53125 h 2.51563 q 1.375,0 2.07812,0.5625 0.71875,0.5625 0.71875,1.67187 0,0.65625 -0.35937,1.15625 -0.35938,0.48438 -0.98438,0.6875 0.73438,0.17188 1.1875,0.75 0.45313,0.5625 0.45313,1.29688 0,1.14062 -0.73438,1.78125 -0.71875,0.625 -2.01562,0.625 z m 0.71875,-4.10938 v 3.5 h 2.17188 q 0.92187,0 1.45312,-0.46875 0.54688,-0.46875 0.54688,-1.3125 0,-0.79687 -0.51563,-1.25 -0.51562,-0.46875 -1.4375,-0.46875 z m 0,-0.59375 h 1.96875 q 0.90625,-0.0156 1.39063,-0.42187 0.5,-0.40625 0.5,-1.1875 0,-0.82813 -0.51563,-1.21875 -0.5,-0.39063 -1.54687,-0.39063 h -1.79688 z"
         fill-rule="nonzero"
         id="path55" />
      <path
         fill="#000000"
         fill-opacity="0"
         d="m 126.41207,274.03412 133.5748,0.44095"
         fill-rule="evenodd"
         id="path57" />
      <path
         stroke="#595959"
         stroke-width="1"
         stroke-linejoin="round"
         stroke-linecap="butt"
         d="m 126.41207,274.03412 127.57485,0.42114"
         fill-rule="evenodd"
         id="path59" />
      <path
         fill="#595959"
         stroke="#595959"
         stroke-width="1"
         stroke-linecap="butt"
         d="m 253.98146,276.107 4.54353,-1.63675 -4.53264,-1.66672 z"
         fill-rule="evenodd"
         id="path61" />
      <path
         fill="#000000"
         fill-opacity="0"
         d="m 168.1181,240.82152 h 61.07088 v 33.92125 H 168.1181 Z"
         fill-rule="evenodd"
         id="path63" />
      <path
         fill="#000000"
         d="m 184.47748,257.54465 q 0,1.21875 -0.4375,2.125 -0.42187,0.89062 -1.21875,1.35937 l 1.54688,1.35938 -0.5,0.4375 -1.73438,-1.5 q -0.48437,0.14062 -0.98437,0.14062 -0.96875,0 -1.73438,-0.48437 -0.75,-0.48438 -1.17187,-1.35938 -0.40625,-0.89062 -0.42188,-2.04687 v -0.95313 q 0,-1.17187 0.40625,-2.0625 0.42188,-0.90625 1.17188,-1.39062 0.76562,-0.48438 1.75,-0.48438 0.98437,0 1.73437,0.48438 0.76563,0.48437 1.17188,1.39062 0.42187,0.89063 0.42187,2.0625 z m -0.71875,-0.9375 q 0,-1.53125 -0.70312,-2.40625 -0.6875,-0.875 -1.90625,-0.875 -1.1875,0 -1.89063,0.875 -0.70312,0.875 -0.70312,2.45312 v 0.89063 q 0,1.51562 0.6875,2.40625 0.70312,0.875 1.90625,0.875 1.21875,0 1.90625,-0.85938 0.70312,-0.875 0.70312,-2.45312 z m 6.48047,3.9375 q -0.64063,0.92187 -2.03125,0.92187 -1.01563,0 -1.54688,-0.59375 -0.51562,-0.59375 -0.53125,-1.75 v -4.125 h 0.70313 v 4.04688 q 0,1.79687 1.45312,1.79687 1.53125,0 1.9375,-1.25 v -4.59375 h 0.70313 v 6.34375 h -0.6875 z m 4.9668,0.92187 q -0.8125,0 -1.46875,-0.40625 -0.65625,-0.40625 -1.01563,-1.10937 -0.35937,-0.71875 -0.35937,-1.59375 v -0.25 q 0,-0.92188 0.34375,-1.65625 0.35937,-0.73438 0.98437,-1.14063 0.64063,-0.42187 1.375,-0.42187 1.15625,0 1.82813,0.79687 0.6875,0.78125 0.6875,2.14063 v 0.39062 h -4.53125 v 0.14063 q 0,1.07812 0.625,1.79687 0.625,0.71875 1.5625,0.71875 0.5625,0 0.98437,-0.20312 0.4375,-0.21875 0.78125,-0.67188 l 0.4375,0.34375 q -0.76562,1.125 -2.23437,1.125 z m -0.14063,-5.98437 q -0.78125,0 -1.32812,0.57812 -0.54688,0.57813 -0.65625,1.5625 h 3.79687 v -0.0781 q -0.0312,-0.92188 -0.53125,-1.48438 -0.48437,-0.57812 -1.28125,-0.57812 z m 6.80859,0.10937 q -0.21875,-0.0312 -0.46875,-0.0312 -0.65625,0 -1.10937,0.375 -0.45313,0.35938 -0.65625,1.04688 v 4.35937 h -0.6875 v -6.34375 h 0.67187 l 0.0156,1.01563 q 0.5625,-1.125 1.79687,-1.125 0.28125,0 0.45313,0.0781 z m 3.22071,4.73438 1.85937,-5.32813 h 0.75 l -2.70312,7.42188 -0.14063,0.32812 q -0.53125,1.15625 -1.60937,1.15625 -0.25,0 -0.54688,-0.0781 v -0.57813 l 0.35938,0.0312 q 0.51562,0 0.82812,-0.26562 0.32813,-0.25 0.54688,-0.875 l 0.3125,-0.84375 -2.39063,-6.29688 h 0.76563 z"
         fill-rule="nonzero"
         id="path65" />
      <path
         fill="#000000"
         fill-opacity="0"
         d="m 126.41207,290.47507 133.5748,0.44095"
         fill-rule="evenodd"
         id="path67" />
      <path
         stroke="#595959"
         stroke-width="1"
         stroke-linejoin="round"
         stroke-linecap="butt"
         d="m 126.41207,290.47507 127.57485,0.42114"
         fill-rule="evenodd"
         id="path69" />
      <path
         fill="#595959"
         stroke="#595959"
         stroke-width="1"
         stroke-linecap="butt"
         d="m 253.98146,292.5479 4.54353,-1.63672 -4.53264,-1.66672 z"
         fill-rule="evenodd"
         id="path71" />
      <path
         fill="#000000"
         fill-opacity="0"
         d="m 153.30446,284.5013 h 86.26772 v 33.92127 h -86.26772 z"
         fill-rule="evenodd"
         id="path73" />
      <path
         fill="#000000"
         d="m 164.10133,301.55255 v 3.46875 h -0.71875 v -8.53125 h 2.90625 q 1.32812,0 2.09375,0.6875 0.78125,0.67187 0.78125,1.85937 0,1.20313 -0.75,1.85938 -0.73438,0.65625 -2.14063,0.65625 z m 0,-0.60938 h 2.1875 q 1.04687,0 1.59375,-0.5 0.5625,-0.5 0.5625,-1.39062 0,-0.89063 -0.54688,-1.40625 -0.54687,-0.53125 -1.5625,-0.54688 h -2.23437 z m 10.44922,4.07813 q -0.10938,-0.29688 -0.14063,-0.89063 -0.375,0.48438 -0.95312,0.75 -0.5625,0.26563 -1.20313,0.26563 -0.90625,0 -1.46875,-0.51563 -0.5625,-0.51562 -0.5625,-1.29687 0,-0.92188 0.76563,-1.45313 0.76562,-0.54687 2.14062,-0.54687 h 1.28125 v -0.71875 q 0,-0.6875 -0.42187,-1.0625 -0.42188,-0.39063 -1.21875,-0.39063 -0.73438,0 -1.21875,0.375 -0.48438,0.375 -0.48438,0.89063 h -0.70312 q 0,-0.75 0.70312,-1.29688 0.70313,-0.5625 1.73438,-0.5625 1.0625,0 1.67187,0.53125 0.60938,0.53125 0.625,1.46875 v 3 q 0,0.92188 0.20313,1.375 v 0.0781 z m -2.20313,-0.5 q 0.70313,0 1.25,-0.34375 0.5625,-0.34375 0.8125,-0.90625 v -1.39063 h -1.26562 q -1.04688,0 -1.64063,0.375 -0.57812,0.375 -0.57812,1.03125 0,0.53125 0.39062,0.89063 0.39063,0.34375 1.03125,0.34375 z m 7.55274,-5.25 q -0.21875,-0.0312 -0.46875,-0.0312 -0.65625,0 -1.10938,0.375 -0.45312,0.35937 -0.65625,1.04687 v 4.35938 h -0.6875 v -6.34375 h 0.67188 l 0.0156,1.01562 q 0.5625,-1.125 1.79688,-1.125 0.28125,0 0.45312,0.0781 z m 4.88086,5.75 q -0.10938,-0.29688 -0.14063,-0.89063 -0.375,0.48438 -0.95312,0.75 -0.5625,0.26563 -1.20313,0.26563 -0.90625,0 -1.46875,-0.51563 -0.5625,-0.51562 -0.5625,-1.29687 0,-0.92188 0.76563,-1.45313 0.76562,-0.54687 2.14062,-0.54687 h 1.28125 v -0.71875 q 0,-0.6875 -0.42187,-1.0625 -0.42188,-0.39063 -1.21875,-0.39063 -0.73438,0 -1.21875,0.375 -0.48438,0.375 -0.48438,0.89063 h -0.70312 q 0,-0.75 0.70312,-1.29688 0.70313,-0.5625 1.73438,-0.5625 1.0625,0 1.67187,0.53125 0.60938,0.53125 0.625,1.46875 v 3 q 0,0.92188 0.20313,1.375 v 0.0781 z m -2.20313,-0.5 q 0.70313,0 1.25,-0.34375 0.5625,-0.34375 0.8125,-0.90625 v -1.39063 h -1.26562 q -1.04688,0 -1.64063,0.375 -0.57812,0.375 -0.57812,1.03125 0,0.53125 0.39062,0.89063 0.39063,0.34375 1.03125,0.34375 z m 5.25586,-5.84375 0.0312,1.03125 q 0.34375,-0.57813 0.875,-0.85938 0.53125,-0.28125 1.17188,-0.28125 1.5,0 1.90625,1.21875 0.34375,-0.57812 0.90625,-0.89062 0.57812,-0.32813 1.25,-0.32813 2.04687,0 2.09375,2.21875 v 4.23438 H 195.365 v -4.17188 q -0.0156,-0.85937 -0.375,-1.26562 -0.35937,-0.40625 -1.17187,-0.40625 -0.75,0 -1.28125,0.48437 -0.51563,0.48438 -0.57813,1.15625 v 4.20313 h -0.70312 v -4.23438 q 0,-0.8125 -0.39063,-1.20312 -0.375,-0.40625 -1.15625,-0.40625 -0.65625,0 -1.14062,0.375 -0.46875,0.375 -0.70313,1.125 v 4.34375 h -0.70312 v -6.34375 z m 12.46289,6.46875 q -0.8125,0 -1.46875,-0.40625 -0.65625,-0.40625 -1.01562,-1.10938 -0.35938,-0.71875 -0.35938,-1.59375 v -0.25 q 0,-0.92187 0.34375,-1.65625 0.35938,-0.73437 0.98438,-1.14062 0.64062,-0.42188 1.375,-0.42188 1.15625,0 1.82812,0.79688 0.6875,0.78125 0.6875,2.14062 v 0.39063 h -4.53125 v 0.14062 q 0,1.07813 0.625,1.79688 0.625,0.71875 1.5625,0.71875 0.5625,0 0.98438,-0.20313 0.4375,-0.21875 0.78125,-0.67187 l 0.4375,0.34375 q -0.76563,1.125 -2.23438,1.125 z m -0.14062,-5.98438 q -0.78125,0 -1.32813,0.57813 -0.54687,0.57812 -0.65625,1.5625 h 3.79688 v -0.0781 q -0.0312,-0.92187 -0.53125,-1.48437 -0.48438,-0.57813 -1.28125,-0.57813 z m 4.96484,-2.10937 v 1.625 h 1.3125 v 0.57812 h -1.3125 v 4.21875 q 0,0.53125 0.1875,0.79688 0.20313,0.25 0.64063,0.25 0.17187,0 0.57812,-0.0625 l 0.0156,0.57812 q -0.26563,0.10938 -0.75,0.10938 -0.71875,0 -1.04688,-0.42188 -0.32812,-0.42187 -0.32812,-1.23437 v -4.23438 h -1.15625 v -0.57812 h 1.15625 v -1.625 z m 5.23047,8.09375 q -0.8125,0 -1.46875,-0.40625 -0.65625,-0.40625 -1.01562,-1.10938 -0.35938,-0.71875 -0.35938,-1.59375 v -0.25 q 0,-0.92187 0.34375,-1.65625 0.35938,-0.73437 0.98438,-1.14062 0.64062,-0.42188 1.375,-0.42188 1.15625,0 1.82812,0.79688 0.6875,0.78125 0.6875,2.14062 v 0.39063 h -4.53125 v 0.14062 q 0,1.07813 0.625,1.79688 0.625,0.71875 1.5625,0.71875 0.5625,0 0.98438,-0.20313 0.4375,-0.21875 0.78125,-0.67187 l 0.4375,0.34375 q -0.76563,1.125 -2.23438,1.125 z m -0.14062,-5.98438 q -0.78125,0 -1.32813,0.57813 -0.54687,0.57812 -0.65625,1.5625 h 3.79688 v -0.0781 q -0.0312,-0.92187 -0.53125,-1.48437 -0.48438,-0.57813 -1.28125,-0.57813 z m 6.80859,0.10938 q -0.21875,-0.0312 -0.46875,-0.0312 -0.65625,0 -1.10938,0.375 -0.45312,0.35937 -0.65625,1.04687 v 4.35938 h -0.6875 v -6.34375 h 0.67188 l 0.0156,1.01562 q 0.5625,-1.125 1.79688,-1.125 0.28125,0 0.45312,0.0781 z m 4.91211,4.14062 q 0,-0.53125 -0.42188,-0.84375 -0.42187,-0.3125 -1.26562,-0.48437 -0.84375,-0.1875 -1.3125,-0.42188 -0.46875,-0.23437 -0.70313,-0.5625 -0.21875,-0.32812 -0.21875,-0.8125 0,-0.75 0.625,-1.23437 0.64063,-0.48438 1.60938,-0.48438 1.0625,0 1.70312,0.53125 0.64063,0.51563 0.64063,1.35938 h -0.70313 q 0,-0.5625 -0.46875,-0.92188 -0.45312,-0.375 -1.17187,-0.375 -0.6875,0 -1.10938,0.3125 -0.42187,0.29688 -0.42187,0.79688 0,0.46875 0.34375,0.73437 0.35937,0.26563 1.28125,0.48438 0.92187,0.20312 1.375,0.45312 0.46875,0.25 0.6875,0.59375 0.23437,0.34375 0.23437,0.84375 0,0.79688 -0.65625,1.28125 -0.64062,0.48438 -1.6875,0.48438 -1.10937,0 -1.79687,-0.53125 -0.6875,-0.54688 -0.6875,-1.375 h 0.70312 q 0.0469,0.625 0.51563,0.96875 0.48437,0.34375 1.26562,0.34375 0.73438,0 1.1875,-0.32813 0.45313,-0.32812 0.45313,-0.8125 z"
         fill-rule="nonzero"
         id="path75" />
    </g>
    <rect
       style="fill:none;fill-rule:evenodd"
       id="rect144"
       width="291.35333"
       height="251.2999"
       x="55.189812"
       y="94.377762" />
  </g>
</svg>
